<?xml version="1.0" encoding="UTF-8"?>
<svg version="1.1" xmlns="http://www.w3.org/2000/svg" width="1080" height="1080">
<path d="M0 0 C3.82834967 0.08509811 7.6560597 0.05299285 11.48506927 0.03587687 C18.10803087 0.02203633 24.72705282 0.08100898 31.34907532 0.19080508 C40.94308871 0.34983072 50.53520111 0.39761999 60.13039055 0.41961954 C75.72786275 0.45844232 91.32323854 0.58710039 106.91960907 0.77225077 C122.01393483 0.95125854 137.10760187 1.08595373 152.20281219 1.16189921 C153.59662283 1.16893281 153.59662283 1.16893281 155.01859125 1.1761085 C158.75496056 1.19477209 162.49133134 1.2130867 166.22770457 1.23094748 C195.69510653 1.37193274 225.16193076 1.56830825 254.62803173 1.88147902 C256.85477579 1.90464281 259.08152935 1.92634813 261.30829239 1.94760096 C305.12995232 2.37106643 305.12995232 2.37106643 316.50945282 5.02347147 C317.28506561 5.19789774 318.06067841 5.37232401 318.85979462 5.55203593 C338.54981866 10.2047261 357.68360146 19.35843682 369.21648407 36.64456522 C373.67452079 44.11801364 376.94246496 51.35068623 376.95476532 60.14456522 C376.95669891 61.04956767 376.95863251 61.95457011 376.96062469 62.88699687 C376.95611298 63.83953349 376.95160126 64.79207011 376.94695282 65.77347147 C376.94501923 66.75759013 376.94308563 67.74170878 376.94109344 68.75564921 C376.90266012 75.26849614 376.57860627 81.68455736 376.06023407 88.17581522 C375.11615365 100.69648837 375.63250045 112.44400643 384.01726532 122.53909647 C387.58831491 126.09468698 391.54416371 128.70517673 395.82195282 131.33597147 C397.27984474 132.24501734 397.27984474 132.24501734 398.76718903 133.17242777 C408.72343582 138.78634953 417.16509788 139.32458807 428.43523407 139.20315897 C430.23464066 139.20966346 432.03403816 139.21935092 433.83341217 139.23198283 C437.63671536 139.25243013 441.43917128 139.25192709 445.24248505 139.23389018 C451.17256452 139.2059963 457.10187054 139.22587632 463.03191376 139.25418437 C469.96339756 139.28445381 476.89473865 139.3050327 483.82628822 139.30991805 C498.5292779 139.32069628 513.22743733 139.46518237 527.92824554 139.71469462 C531.5077445 139.77243573 535.08720385 139.81551756 538.66692352 139.85696757 C540.79673609 139.88961468 542.92653852 139.92293355 545.05632782 139.95706522 C546.00309891 139.96540888 546.94987 139.97375254 547.92533112 139.98234904 C548.78550339 139.99906153 549.64567566 140.01577403 550.53191376 140.03299296 C551.63934937 140.04845416 551.63934937 140.04845416 552.76915741 140.0642277 C555.12031333 140.37546767 556.76982567 141.17349117 558.82195282 142.33597147 C558.45021942 142.8131663 558.07848602 143.29036112 557.69548798 143.7820164 C549.1081485 154.80794858 540.54422959 165.85041682 532.05632782 176.95315897 C531.37038544 177.84877543 531.37038544 177.84877543 530.67058563 178.76248515 C529.7936747 179.90751747 528.91795714 181.05346504 528.04363251 182.20047343 C526.38556714 184.36418752 524.75210886 186.40581543 522.82195282 188.33597147 C520.09091666 188.52949706 517.46170433 188.59819882 514.7299118 188.5788914 C513.89195572 188.58078974 513.05399963 188.58268809 512.19065094 188.58464396 C509.39968954 188.58836796 506.60898522 188.5776048 503.81804657 188.56644022 C501.86297384 188.56524669 499.90790053 188.56479563 497.95282745 188.56505167 C493.83258775 188.56348279 489.71243442 188.55517751 485.59221649 188.54178202 C480.38571381 188.52504601 475.17930743 188.5210512 469.97278118 188.52159655 C376.08006619 188.51919627 376.08006619 188.51919627 345.82195282 159.33597147 C345.06527313 158.66694804 344.30859344 157.9979246 343.52898407 157.30862772 C330.27664138 145.05990479 318.87017464 125.62868997 317.53484344 107.42117655 C317.50722504 106.06610186 317.48866665 104.71081845 317.47820282 103.35550272 C317.46358002 102.62079249 317.44895721 101.88608225 317.4338913 101.12910807 C317.38788609 98.80228376 317.35345528 96.47553428 317.32195282 94.14847147 C317.96976816 76.04315125 317.96976816 76.04315125 312.82195282 59.33597147 C303.25401239 51.87277203 294.02606827 51.33766228 282.34929657 51.46878397 C280.59852436 51.46216601 278.84776184 51.45236219 277.09702301 51.43968546 C273.31049306 51.41883266 269.52481729 51.41963903 265.73827362 51.43750346 C259.66746159 51.46599151 253.59733668 51.44757618 247.52654266 51.42215312 C240.93044351 51.39718741 234.3344227 51.37688128 227.73827362 51.37315714 C209.1648096 51.36258559 190.59377039 51.23880695 172.02117157 51.07425272 C170.72935282 51.06280915 169.43753407 51.05136557 168.10656929 51.03957522 C164.19748731 51.00476022 160.2884066 50.96980294 156.37932587 50.93484843 C131.52701892 50.71726442 106.67445718 50.52969924 81.82195282 50.33597147 C81.82195282 95.87597147 81.82195282 141.41597147 81.82195282 188.33597147 C62.68195282 188.33597147 43.54195282 188.33597147 23.82195282 188.33597147 C23.82195282 142.79597147 23.82195282 97.25597147 23.82195282 50.33597147 C-2.93916566 50.3755439 -2.93916566 50.3755439 -29.70026398 50.42605937 C-34.88275909 50.43057597 -34.88275909 50.43057597 -37.31093597 50.4314152 C-39.00238559 50.43294812 -40.69383413 50.43645968 -42.38527679 50.44154704 C-44.95122926 50.44887711 -47.51711509 50.44987711 -50.08307648 50.44949687 C-50.83329165 50.45309497 -51.58350683 50.45669308 -52.3564558 50.46040022 C-56.09100266 50.4530026 -59.54716029 50.23347566 -63.17804718 49.33597147 C-59.68658464 43.90873604 -55.79700339 38.82530984 -51.86554718 33.71097147 C-50.57682977 32.0320181 -49.28912297 30.35228867 -48.00226593 28.67190897 C-47.28700871 27.78445333 -46.57175148 26.89699769 -45.83481979 25.98264945 C-43.74028533 23.26081666 -42.11913162 20.44611299 -40.49475479 17.42260802 C-30.4696466 0.02824461 -18.67658687 -0.524094 0 0 Z " fill="#AC0A12" transform="translate(292.1780471801758,444.6640285253525)"/>
<path d="M0 0 C0.13351364 0.79972229 0.26702728 1.59944458 0.40458679 2.42340088 C6.15906468 36.71781968 16.83159081 67.61206931 45.89453125 89.14453125 C47.41419451 90.12812432 48.95385366 91.08257774 50.5234375 91.984375 C51.01070312 92.31953125 51.49796875 92.6546875 52 93 C52 93.66 52 94.32 52 95 C44.36792603 98.81603699 31.02243147 97.14373029 22.50182915 97.37743568 C18.28052321 97.49613206 14.07282952 97.66104483 9.85888672 97.94091797 C-17.26874656 99.69731294 -17.26874656 99.69731294 -25.0708313 93.60025024 C-30.21082754 87.71657754 -33.56193054 81.15020923 -36.63343811 74.01142883 C-38.53683467 69.81700242 -41.01016221 66.16741477 -43.6875 62.4375 C-47.94100011 56.14413306 -47.94100011 56.14413306 -48.82922363 53.97425842 C-49.96647475 51.48856115 -50.99078757 49.8706177 -53 48 C-57.44497982 46.79227877 -61.81215807 46.92965099 -66.39453125 47 C-68.34826912 46.9836853 -68.34826912 46.9836853 -70.34147644 46.96704102 C-73.79278869 46.93866704 -77.24224084 46.95785346 -80.69348145 46.98712158 C-84.21959794 47.00855169 -87.74540228 46.98520041 -91.27148438 46.96484375 C-98.18251946 46.92822361 -105.08751091 46.96606326 -112 47 C-112 63.17 -112 79.34 -112 96 C-131.14 96 -150.28 96 -170 96 C-170 64.65 -170 33.3 -170 1 C-133.48097288 0.74922556 -133.48097288 0.74922556 -118.06054688 0.64453125 C-107.45499385 0.57252 -96.84944192 0.50036784 -86.24389648 0.42724609 C-78.51652418 0.37396909 -70.78914855 0.32120639 -63.06176871 0.26903296 C-58.97935109 0.24145223 -54.89693545 0.21363325 -50.8145237 0.18519592 C-33.87625257 0.06736789 -16.93880805 -0.03858865 0 0 Z " fill="#D00D16" transform="translate(587,537)"/>
<path d="M0 0 C3.67946542 0.00633793 7.35893205 0.00684546 11.03840208 0.00802541 C17.97579835 0.01110842 24.91317847 0.01928009 31.8505677 0.0293749 C39.76135231 0.04063125 47.67213777 0.04607025 55.58292842 0.05107033 C71.82807494 0.06146596 88.07320531 0.07900542 104.31833982 0.10139394 C103.21394796 1.85705181 102.10690597 3.6110428 100.99875975 5.36433339 C100.38256269 6.34126653 99.76636564 7.31819966 99.13149595 8.32473683 C96.83723126 11.83816089 94.31216179 15.06778928 91.63083982 18.28889394 C86.70312535 24.32408389 81.97120151 30.47903958 77.32737303 36.73493886 C76.40966415 37.97052931 75.4888666 39.20383402 74.56443357 40.43440175 C73.43551122 41.94464505 72.32871222 43.4713635 71.22458982 44.99983144 C69.04325439 47.40466435 68.43559916 47.58832512 65.31833982 48.10139394 C63.02196637 48.21218623 60.72273564 48.26760217 58.42380857 48.29084706 C57.73668287 48.29914037 57.04955717 48.30743367 56.34160948 48.31597829 C54.84828043 48.3333601 53.35492439 48.34853201 51.86155272 48.36175466 C49.46752463 48.3829837 47.07362083 48.41001133 44.67966795 48.43843007 C40.42268503 48.48801295 36.16566653 48.5325028 31.90861082 48.57533193 C18.04464181 48.71482425 4.18109945 48.86857208 -9.68166018 49.10139394 C-10.39223574 49.11311635 -11.1028113 49.12483876 -11.83491945 49.1369164 C-16.34716553 49.21412088 -20.85789837 49.32154982 -25.36916018 49.44514394 C-26.45390627 49.46572865 -27.53865236 49.48631337 -28.65626955 49.50752187 C-35.9912074 49.74352707 -42.63790253 51.07744316 -49.68166018 53.10139394 C-50.43954836 53.31219594 -51.19743654 53.52299794 -51.97829103 53.74018788 C-53.54960244 54.18157301 -55.11642095 54.63893689 -56.68166018 55.10139394 C-57.03357424 53.89225331 -57.3854883 52.68311269 -57.74806643 51.43733144 C-62.03032821 37.08167075 -66.89261367 24.5711693 -76.95900393 13.21076894 C-78.68166018 11.10139394 -78.68166018 11.10139394 -78.68166018 9.10139394 C-71.3915766 5.79009924 -64.37585851 3.60309222 -56.49416018 2.35139394 C-55.43878054 2.17869985 -55.43878054 2.17869985 -54.3620801 2.00251698 C-36.41120427 -0.60525821 -18.08403528 -0.03651499 0 0 Z " fill="#91080E" transform="translate(746.6816601753235,446.8986060619354)"/>
</svg>
